<svg width="36" height="37" viewBox="0 0 36 37" fill="none" xmlns="http://www.w3.org/2000/svg">
<path d="M9.33334 1V6" stroke="#292D32" stroke-width="2" stroke-miterlimit="10" stroke-linecap="round" stroke-linejoin="round"/>
<path d="M22.6667 1V6" stroke="#292D32" stroke-width="2" stroke-miterlimit="10" stroke-linecap="round" stroke-linejoin="round"/>
<path d="M31 11.8333V20.3833C29.5167 19.2 27.6333 18.5 25.5833 18.5C23.5333 18.5 21.6167 19.2167 20.1167 20.4333C18.1 22.0167 16.8333 24.5 16.8333 27.25C16.8333 28.8833 17.3 30.45 18.1 31.75C18.7167 32.7667 19.5167 33.65 20.4667 34.3333H9.33333C3.5 34.3333 1 31 1 26V11.8333C1 6.83333 3.5 3.5 9.33333 3.5H22.6667C28.5 3.5 31 6.83333 31 11.8333Z" stroke="#292D32" stroke-width="2" stroke-miterlimit="10" stroke-linecap="round" stroke-linejoin="round"/>
<path d="M7.66667 16H17.6667" stroke="#292D32" stroke-width="2" stroke-miterlimit="10" stroke-linecap="round" stroke-linejoin="round"/>
<path d="M7.66667 24.3333H12.0333" stroke="#292D32" stroke-width="2" stroke-miterlimit="10" stroke-linecap="round" stroke-linejoin="round"/>
<path d="M34.3333 27.25C34.3333 28.8833 33.8667 30.45 33.0667 31.75C32.6 32.55 32.0167 33.25 31.3333 33.8167C29.8 35.1833 27.8 36 25.5833 36C23.6667 36 21.9 35.3833 20.4667 34.3333C19.5167 33.65 18.7167 32.7667 18.1 31.75C17.3 30.45 16.8333 28.8833 16.8333 27.25C16.8333 24.5 18.1 22.0167 20.1167 20.4333C21.6167 19.2167 23.5333 18.5 25.5833 18.5C27.6333 18.5 29.5167 19.2 31 20.3833C33.0333 21.9833 34.3333 24.4667 34.3333 27.25Z" stroke="#292D32" stroke-width="2" stroke-miterlimit="10" stroke-linecap="round" stroke-linejoin="round"/>
<path d="M25.5833 31.4167C25.5833 29.1167 27.45 27.25 29.75 27.25C27.45 27.25 25.5833 25.3833 25.5833 23.0833C25.5833 25.3833 23.7167 27.25 21.4167 27.25C23.7167 27.25 25.5833 29.1167 25.5833 31.4167Z" stroke="#292D32" stroke-width="2" stroke-linecap="round" stroke-linejoin="round"/>
</svg>
