<svg width="32" height="35" viewBox="0 0 32 35" fill="none" xmlns="http://www.w3.org/2000/svg">
<path d="M30.529 8.92084C30.4964 8.92084 30.4476 8.92084 30.3988 8.92084C21.7872 8.05806 13.1919 7.73248 4.67789 8.59527L1.35698 8.92084C0.673263 8.98596 0.0709401 8.49759 0.0058241 7.81387C-0.0592919 7.13016 0.429078 6.54411 1.09652 6.479L4.41743 6.15342C13.0779 5.27435 21.8523 5.61621 30.6429 6.479C31.3104 6.54411 31.7987 7.14644 31.7336 7.81387C31.6848 8.44875 31.1476 8.92084 30.529 8.92084Z" fill="#292D32"/>
<path d="M10.1819 7.27671C10.1168 7.27671 10.0517 7.27671 9.97031 7.26043C9.31915 7.14648 8.86334 6.5116 8.9773 5.86044L9.33543 3.72789C9.5959 2.16511 9.95403 0 13.747 0H18.0121C21.8214 0 22.1795 2.2465 22.4237 3.74417L22.7818 5.86044C22.8958 6.52788 22.44 7.16276 21.7888 7.26043C21.1214 7.37438 20.4865 6.91857 20.3888 6.26741L20.0307 4.15114C19.8028 2.73487 19.7539 2.45813 18.0284 2.45813H13.7633C12.0377 2.45813 12.0052 2.68603 11.761 4.13486L11.3866 6.25113C11.2889 6.85346 10.768 7.27671 10.1819 7.27671Z" fill="#292D32"/>
<path d="M21.1046 35H10.6535C4.97208 35 4.74418 31.8582 4.56511 29.3186L3.50697 12.9256C3.45814 12.2582 3.97906 11.6722 4.6465 11.6233C5.33022 11.5908 5.89999 12.0954 5.94882 12.7629L7.00696 29.1558C7.18602 31.6302 7.25114 32.5581 10.6535 32.5581H21.1046C24.5232 32.5581 24.5883 31.6302 24.7511 29.1558L25.8092 12.7629C25.858 12.0954 26.4441 11.5908 27.1115 11.6233C27.779 11.6722 28.2999 12.2419 28.2511 12.9256L27.1929 29.3186C27.0139 31.8582 26.7859 35 21.1046 35Z" fill="#292D32"/>
<path d="M18.5809 26.0464H13.16C12.4925 26.0464 11.939 25.4929 11.939 24.8255C11.939 24.158 12.4925 23.6045 13.16 23.6045H18.5809C19.2483 23.6045 19.8018 24.158 19.8018 24.8255C19.8018 25.4929 19.2483 26.0464 18.5809 26.0464Z" fill="#292D32"/>
<path d="M19.9481 19.5348H11.8086C11.1412 19.5348 10.5877 18.9813 10.5877 18.3139C10.5877 17.6464 11.1412 17.0929 11.8086 17.0929H19.9481C20.6156 17.0929 21.1691 17.6464 21.1691 18.3139C21.1691 18.9813 20.6156 19.5348 19.9481 19.5348Z" fill="#292D32"/>
</svg>
